# xmcd
#
# Track frame offsets:
#	150
#	19772
#	33317
#	49102
#	61477
#	77012
#	90482
#	113017
#	128815
#	148910
#	164862
#	182797
#	195137
#	211287
#	232317
#	246215
#	266695
#
# Disc length: 3822 seconds
#
# Revision: 3
# Processed by: cddbd v1.5.2PL0 Copyright (c) Steve Scherf et al.
# Submitted via: EZCDAudioConverter 9.0.5.1
#
DISCID=f20eec11
DTITLE=Various Artist - 愛是永恆 (24 Bit dCS RE-Mastered) DE-Magnetic (EZ 9.0-WAV)
DYEAR=2000
DGENRE=Pop
TTITLE0=張學友 - Amour
TTITLE1=譚詠倫 - 小珊瑚
TTITLE2=鄧麗君 - 月亮代表我的心
TTITLE3=陳麗斯 - 明星
TTITLE4=許冠傑 - 印象
TTITLE5=許冠傑 - 雙星情歌
TTITLE6=譚詠倫 - 最愛的你
TTITLE7=許冠傑 - 難忘你
TTITLE8=鄺美雲 - 堆積情感
TTITLE9=蘇芮 - 是否
TTITLE10=譚詠倫 - 忘不了你
TTITLE11=鍾鎮濤 - 不可以不想你
TTITLE12=雷安娜 - 真的歡喜你
TTITLE13=張學友 - 每天愛你多一些
TTITLE14=區瑞強 - 陌上歸人
TTITLE15=王菲 - 愛與痛的邊緣
TTITLE16=李克勤 - 妳是我的太陽
EXTD=
EXTT0=
EXTT1=
EXTT2=
EXTT3=
EXTT4=
EXTT5=
EXTT6=
EXTT7=
EXTT8=
EXTT9=
EXTT10=
EXTT11=
EXTT12=
EXTT13=
EXTT14=
EXTT15=
EXTT16=
PLAYORDER=
